# xmcd CD database file
#
# Track frame offsets:
#	150
#	15837
#	35050
#	45837
#	62473
#	73341
#	94519
#	114735
#	127617
#	150086
#	167189
#	180676
#	196053
#	212890
#
# Disc length: 3097 seconds
#
# Revision: 2
# Processed by: cddbd v1.4b41PL1 Copyright (c) Steve Scherf et al.
# Submitted via: Feurio! 1.60 - http://www.feurio.com
#
DISCID=a10c170e,a90c170e
DTITLE=Boysetsfire - Unbekannte CD #A90C170E16124EFD
DYEAR=1900
DGENRE=
TTITLE0=After The Eulogy
TTITLE1=Rookie
TTITLE2=Pariah Under Glass
TTITLE3=When Rhetoric Dies
TTITLE4=(Compassion) As Skull Fragments On The Wall
TTITLE5=Our Time Honoured Tradition Of Cannibalism
TTITLE6=The Abominations Of Those Vitous
TTITLE7=Across Five Years
TTITLE8=My Life In TheKnife Trade
TTITLE9=Still Waiting For The Punchline
TTITLE10=Twelve Step Hammer Programm
TTITLE11=Unspoken Request
TTITLE12=The Force Majeure
TTITLE13=MC Hammer - Can't Touch This
EXTD=
EXTT0=
EXTT1=
EXTT2=
EXTT3=
EXTT4=
EXTT5=
EXTT6=
EXTT7=
EXTT8=
EXTT9=
EXTT10=
EXTT11=
EXTT12=
EXTT13=
PLAYORDER=
